<?xml version="1.0" encoding="UTF-8"?>
<!-- Generated by Pixelmator Pro 3.6.9 -->
<svg width="1080" height="1080" viewBox="0 0 1080 1080" xmlns="http://www.w3.org/2000/svg">
    <path id="Relleno-de-color" fill="#ffffff" stroke="none" visibility="hidden" d="M 0 0 L 1080 0 L 1080 1080 L 0 1080 Z"/>
    <linearGradient id="linearGradient1" x1="32" y1="540.5" x2="1047" y2="540.5" gradientUnits="userSpaceOnUse">
        <stop offset="0" stop-color="#3478f6" stop-opacity="1"/>
        <stop offset="1" stop-color="#53b6f9" stop-opacity="1"/>
    </linearGradient>
    <path id="Satlite" fill="url(#linearGradient1)" fill-rule="evenodd" stroke="none" d="M 695.221252 512.686279 L 567.302185 384.772461 L 919.079956 33 L 1047 160.913696 Z M 645.166443 329.153076 L 617.357971 356.960571 L 645.166443 384.772461 L 672.973877 356.960571 Z M 684.099976 368.086487 L 656.291504 395.894043 L 684.099976 423.702087 L 711.908386 395.894043 Z M 723.033508 407.01947 L 695.226013 434.827454 L 723.033508 462.635559 L 750.841919 434.827454 Z M 684.099976 290.219604 L 656.291504 318.027649 L 684.099976 345.835266 L 711.908386 318.027649 Z M 723.033508 329.153076 L 695.226013 356.960571 L 723.033508 384.772461 L 750.841919 356.960571 Z M 761.968018 368.086487 L 734.155762 395.894043 L 761.964233 423.702087 L 789.772644 395.894043 Z M 723.033508 251.286194 L 695.226013 279.094177 L 723.033508 306.906067 L 750.841919 279.094177 Z M 761.968018 290.219604 L 734.155762 318.031494 L 761.964233 345.83905 L 789.772644 318.031494 Z M 800.90155 329.153076 L 773.09314 356.960571 L 800.90155 384.772461 L 828.710022 356.960571 Z M 761.968018 212.352783 L 734.155762 240.168518 L 761.964233 267.97644 L 789.772644 240.168518 Z M 800.90155 251.286194 L 773.09314 279.094177 L 800.90155 306.906067 L 828.710022 279.094177 Z M 839.83606 290.219604 L 812.027649 318.027649 L 839.83606 345.835266 L 867.643555 318.027649 Z M 800.90155 173.4198 L 773.09314 201.227295 L 800.90155 229.039185 L 828.710022 201.227295 Z M 839.83606 212.352783 L 812.027649 240.160767 L 839.83606 267.96875 L 867.643555 240.160767 Z M 878.769592 251.286194 L 850.961182 279.094177 L 878.769592 306.906067 L 906.578064 279.094177 Z M 839.83606 134.486389 L 812.027649 162.293884 L 839.83606 190.101868 L 867.643555 162.293884 Z M 878.769592 173.4198 L 850.961182 201.227295 L 878.769592 229.039185 L 906.578064 201.227295 Z M 917.703186 212.352783 L 889.895691 240.160767 L 917.703186 267.96875 L 945.511597 240.160767 Z M 878.769592 95.552917 L 850.961182 123.360962 L 878.769592 151.172363 L 906.578064 123.360962 Z M 917.703186 134.486389 L 889.895691 162.293884 L 917.703186 190.101868 L 945.511597 162.293884 Z M 956.637695 173.4198 L 928.829224 201.227295 L 956.637695 229.039185 L 984.446106 201.227295 Z M 917.703186 56.619507 L 889.895691 84.42749 L 917.703186 112.235535 L 945.511597 84.42749 Z M 956.637695 95.552917 L 928.829224 123.360962 L 956.637695 151.172363 L 984.446106 123.360962 Z M 995.571228 134.486389 L 967.762756 162.293884 L 995.571228 190.101868 L 1023.3797 162.293884 Z M 873.204651 618.356812 L 791.309753 700.254761 L 810.749634 772.80835 L 848.176819 810.235352 C 858.928406 820.986755 858.928406 838.417786 848.176819 849.168762 C 837.426086 859.919678 819.993896 859.919678 809.243286 849.168762 L 771.815186 811.74176 L 699.260559 792.302612 L 617.354065 874.176575 C 602.595825 814.479004 614.551575 751.314575 650.105347 701.139465 L 611.789185 662.823425 L 600.666931 673.948853 C 591.816406 682.799744 579.812805 687.772217 567.296448 687.772217 C 554.779114 687.772217 542.775513 682.799744 533.924988 673.948853 L 406.00592 546.03125 C 367.6091 507.635498 367.6091 445.383972 406.00592 406.98822 C 444.401825 368.592468 506.654205 368.592468 545.051025 406.98822 L 672.970093 534.905823 C 681.821594 543.756226 686.793152 555.760254 686.793152 568.276306 C 686.793152 580.792969 681.821594 592.796875 672.970093 601.647339 L 661.844971 612.768372 L 700.161072 651.084473 C 750.342712 615.540771 813.508179 603.594482 873.204651 618.356812 Z M 712.10907 779.454224 L 782.292175 798.276001 L 797.272217 783.296692 L 778.466064 713.114624 Z M 372.651733 418.141113 L 266.980072 379.208069 L 378.21286 267.97644 L 417.147339 373.647034 Z M 32 920.078613 L 383.777802 568.30603 L 511.697815 696.219849 L 159.919006 1048 Z M 433.833618 751.839233 L 461.642059 724.031738 L 433.833618 696.219849 L 406.021301 724.031738 Z M 394.899048 712.905762 L 422.707489 685.098267 L 394.899048 657.290222 L 367.091583 685.098267 Z M 355.965515 673.972839 L 383.773956 646.164795 L 355.965515 618.352966 L 328.153259 646.164795 Z M 394.899048 790.772705 L 422.707489 762.964661 L 394.899048 735.157104 L 367.091583 762.964661 Z M 355.965515 751.839233 L 383.773956 724.031738 L 355.965515 696.219849 L 328.153259 724.031738 Z M 317.031982 712.905762 L 344.839478 685.098267 L 317.031982 657.290222 L 289.223541 685.098267 Z M 355.965515 829.706116 L 383.773956 801.898071 L 355.965515 774.086182 L 328.153259 801.898071 Z M 317.031982 790.772705 L 344.839478 762.964661 L 317.031982 735.157104 L 289.223541 762.964661 Z M 278.097504 751.839233 L 305.905945 724.031738 L 278.097504 696.219849 L 250.289047 724.031738 Z M 317.031982 868.639526 L 344.839478 840.831543 L 317.031982 813.02356 L 289.223541 840.831543 Z M 278.097504 829.706116 L 305.905945 801.898071 L 278.097504 774.086182 L 250.289047 801.898071 Z M 239.16391 790.772705 L 266.972351 762.964661 L 239.16391 735.157104 L 211.355469 762.964661 Z M 278.097504 907.57251 L 305.905945 879.764954 L 278.097504 851.953125 L 250.289047 879.764954 Z M 239.16391 868.639526 L 266.972351 840.831543 L 239.16391 813.02356 L 211.355469 840.831543 Z M 200.229401 829.706116 L 228.037842 801.898071 L 200.229401 774.086182 L 172.421936 801.898071 Z M 239.16391 946.505981 L 266.972351 918.698425 L 239.16391 890.890381 L 211.355469 918.698425 Z M 200.229401 907.57251 L 228.037842 879.764954 L 200.229401 851.953125 L 172.421936 879.764954 Z M 161.295883 868.639526 L 189.104309 840.831543 L 161.295883 813.02356 L 133.487411 840.831543 Z M 200.229401 985.439392 L 228.037842 957.631348 L 200.229401 929.820007 L 172.421936 957.631348 Z M 161.295883 946.505981 L 189.104309 918.698425 L 161.295883 890.890381 L 133.487411 918.698425 Z M 122.36232 907.57251 L 150.169815 879.764954 L 122.36232 851.953125 L 94.553879 879.764954 Z M 161.295883 1024.372803 L 189.104309 996.564819 L 161.295883 968.757263 L 133.487411 996.564819 Z M 122.36232 985.439392 L 150.169815 957.631348 L 122.36232 929.820007 L 94.553879 957.631348 Z M 83.427818 946.505981 L 111.236259 918.698425 L 83.427818 890.890381 L 55.619377 918.698425 Z"/>
</svg>
